<?xml version="1.0" encoding="UTF-8" standalone="no"?>
<svg
   xmlns:dc="http://purl.org/dc/elements/1.1/"
   xmlns:cc="http://creativecommons.org/ns#"
   xmlns:rdf="http://www.w3.org/1999/02/22-rdf-syntax-ns#"
   xmlns:svg="http://www.w3.org/2000/svg"
   xmlns="http://www.w3.org/2000/svg"
   xmlns:sodipodi="http://sodipodi.sourceforge.net/DTD/sodipodi-0.dtd"
   xmlns:inkscape="http://www.inkscape.org/namespaces/inkscape"
   version="1.1"
   id="svg2"
   height="600"
   width="900"
   viewBox="0 0 45 30"
   inkscape:version="0.91 r13725"
   sodipodi:docname="flagEN.svg">
  <sodipodi:namedview
     pagecolor="#ffffff"
     bordercolor="#666666"
     borderopacity="1"
     objecttolerance="10"
     gridtolerance="10"
     guidetolerance="10"
     inkscape:pageopacity="0"
     inkscape:pageshadow="2"
     inkscape:window-width="958"
     inkscape:window-height="1057"
     id="namedview12"
     showgrid="false"
     borderlayer="false"
     showborder="false"
     inkscape:zoom="0.39333333"
     inkscape:cx="501.78286"
     inkscape:cy="500.78193"
     inkscape:window-x="0"
     inkscape:window-y="21"
     inkscape:window-maximized="0"
     inkscape:current-layer="svg2"
     fit-margin-top="0"
     fit-margin-left="0"
     fit-margin-right="0"
     fit-margin-bottom="0" />
  <metadata
     id="metadata21">
    <rdf:RDF>
      <cc:Work
         rdf:about="">
        <dc:format>image/svg+xml</dc:format>
        <dc:type
           rdf:resource="http://purl.org/dc/dcmitype/StillImage" />
        <dc:title></dc:title>
      </cc:Work>
    </rdf:RDF>
  </metadata>
  <defs
     id="defs19" />
  <clipPath
     id="t">
    <path
       id="path5"
       d="m 30,15 30,0 0,15 z m 0,0 0,15 -30,0 z M 30,15 0,15 0,0 Z m 0,0 0,-15 30,0 z"
       inkscape:connector-curvature="0" />
  </clipPath>
  <path
     id="path7"
     d="M 0,0 0,30 45,30 45,0 Z"
     inkscape:connector-curvature="0"
     style="fill:#00247d" />
  <path
     style="color:#000000;font-style:normal;font-variant:normal;font-weight:normal;font-stretch:normal;font-size:medium;line-height:normal;font-family:sans-serif;text-indent:0;text-align:start;text-decoration:none;text-decoration-line:none;text-decoration-style:solid;text-decoration-color:#000000;letter-spacing:normal;word-spacing:normal;text-transform:none;direction:ltr;block-progression:tb;writing-mode:lr-tb;baseline-shift:baseline;text-anchor:start;white-space:normal;clip-rule:nonzero;display:inline;overflow:visible;visibility:visible;opacity:1;isolation:auto;mix-blend-mode:normal;color-interpolation:sRGB;color-interpolation-filters:linearRGB;solid-color:#000000;solid-opacity:1;fill:#ffffff;fill-opacity:1;fill-rule:nonzero;stroke:none;stroke-width:6;stroke-linecap:butt;stroke-linejoin:miter;stroke-miterlimit:4;stroke-dasharray:none;stroke-dashoffset:0;stroke-opacity:1;color-rendering:auto;image-rendering:auto;shape-rendering:auto;text-rendering:auto;enable-background:accumulate"
     d="M 0,0 0,3.3544922 17.468262,15 0,26.645508 0,30 5.0320313,30 22.5,18.355469 39.967969,30 45,30 45,26.645508 27.531738,15 45,3.3544922 45,0 39.967969,0 22.5,11.644531 5.0320313,0 0,0 Z"
     id="path9"
     inkscape:connector-curvature="0" />
  <path
     id="path11"
     clip-path="url(#t)"
     d="M 0,0 60,30 M 60,0 0,30"
     inkscape:connector-curvature="0"
     transform="scale(0.75,1)"
     style="stroke:#cf142b;stroke-width:4" />
  <path
     id="path13"
     d="m 22.5,0 0,30 M 0,15 45,15"
     inkscape:connector-curvature="0"
     style="stroke:#ffffff;stroke-width:8.66025448" />
  <path
     id="path15"
     d="m 22.5,0 0,30 M 0,15 45,15"
     inkscape:connector-curvature="0"
     style="stroke:#cf142b;stroke-width:5.19615221" />
</svg>
