<?xml version="1.0" encoding="UTF-8" standalone="no"?>
<svg
   xmlns:dc="http://purl.org/dc/elements/1.1/"
   xmlns:cc="http://creativecommons.org/ns#"
   xmlns:rdf="http://www.w3.org/1999/02/22-rdf-syntax-ns#"
   xmlns:svg="http://www.w3.org/2000/svg"
   xmlns="http://www.w3.org/2000/svg"
   viewBox="0 0 406.25 96.875"
   height="96.875"
   width="406.25"
   xml:space="preserve"
   version="1.1"
   id="svg2"><metadata
     id="metadata8"><rdf:RDF><cc:Work
         rdf:about=""><dc:format>image/svg+xml</dc:format><dc:type
           rdf:resource="http://purl.org/dc/dcmitype/StillImage" /><dc:title></dc:title></cc:Work></rdf:RDF></metadata><defs
     id="defs6"><clipPath
       id="clipPath16"
       clipPathUnits="userSpaceOnUse"><path
         id="path18"
         d="m 0,77.5 325,0 L 325,0 0,0 0,77.5 Z" /></clipPath></defs><g
     transform="matrix(1.25,0,0,-1.25,0,96.875)"
     id="g10"><g
       id="g3590"><g
         id="g3557"><path
           d="m 96.7614,48.8777 c -1.477,1.245 -1.969,3.215 -1.969,6.198 l 0,13.643 2.693,0 0,-12.918 0,-0.725 c 0,-1.563 0.029,-2.751 0.724,-3.736 0.811,-1.187 2.23,-1.535 4.431,-1.535 l 8.661,0 c 2.201,0 3.621,0.348 4.431,1.535 0.695,0.985 0.725,2.173 0.725,3.736 l 0,0.725 0,12.918 2.694,0 0,-13.498 c 0,-3.099 -0.551,-5.126 -1.941,-6.343 -1.478,-1.304 -3.708,-1.477 -7.01,-1.477 l -6.43,0 c -3.244,0 -5.474,0.173 -7.009,1.477"
           style="fill:#00adef;fill-opacity:1;fill-rule:nonzero;stroke:none"
           id="path22" /><path
           d="m 123.7252,47.661 0,21.057 4.112,0 19.031,-18.652 0,18.652 2.606,0 0,-21.057 -3.823,0 -19.319,18.943 0,-18.943 -2.607,0 z"
           style="fill:#00adef;fill-opacity:1;fill-rule:nonzero;stroke:none"
           id="path26" /><path
           id="path28"
           style="fill:#00adef;fill-opacity:1;fill-rule:nonzero;stroke:none"
           d="m 154.252,68.719 2.608,0 0,-21.057 -2.608,0 0,21.057 z" /><path
           d="m 159.175,68.7187 2.955,0 10.368,-18.827 10.428,18.827 2.983,0 -11.701,-21.057 -3.332,0 -11.701,21.057 z"
           style="fill:#00adef;fill-opacity:1;fill-rule:nonzero;stroke:none"
           id="path32" /><path
           d="m 188.0504,68.7187 20.739,0 0,-2.346 -18.19,0 0,-6.604 17.437,0 0,-2.346 -17.437,0 0,-7.415 18.19,0 0,-2.346 -20.739,0 0,21.057 z"
           style="fill:#00adef;fill-opacity:1;fill-rule:nonzero;stroke:none"
           id="path36" /><path
           d="m 214.812,66.4303 0,-8.081 13.266,0 c 3.736,0 4.691,0.666 4.691,3.534 l 0,1.013 c 0,2.868 -0.955,3.534 -4.691,3.534 l -13.266,0 z m -2.608,-18.769 0,21.058 15.034,0 c 5.938,0 8.283,-0.724 8.283,-5.012 l 0,-2.52 c 0,-2.49 -0.81,-3.59 -3.707,-4.199 2.288,-0.26 3.476,-1.652 3.476,-4.112 l 0,-5.215 -2.607,0 0,4.693 c 0,3.302 -1.477,3.562 -5.098,3.562 l -12.773,0 0,-8.255 -2.608,0 z"
           style="fill:#00adef;fill-opacity:1;fill-rule:nonzero;stroke:none"
           id="path40" /><path
           d="m 241.8049,54.5259 c -0.029,-0.55 -0.058,-0.956 -0.058,-1.245 0,-2.867 1.824,-3.534 6.17,-3.534 l 5.503,0 c 5.126,0 6.893,0.551 6.893,4.084 0,2.984 -1.332,3.476 -4.634,3.476 l -8.893,0 c -5.473,0 -7.617,1.447 -7.617,5.793 0,4.693 2.694,5.879 9.065,5.879 l 4.781,0 c 3.88,0 6.429,-0.086 7.935,-1.331 1.013,-0.87 1.42,-2.231 1.42,-4.172 l 0,-0.609 -2.52,0 0,0.32 c 0,3.04 -1.304,3.533 -5.214,3.533 l -7.183,0 c -4.142,0 -5.561,-0.666 -5.561,-3.504 0,-3.1 1.679,-3.563 5.735,-3.563 l 7.56,0 c 2.635,0 4.518,-0.115 5.735,-0.841 1.592,-0.955 1.998,-2.519 1.998,-5.126 0,-4.837 -2.346,-6.285 -8.69,-6.285 l -7.154,0 c -5.503,0 -7.849,1.477 -7.849,5.532 0,0.464 0.029,0.985 0.058,1.593 l 2.52,0 z"
           style="fill:#00adef;fill-opacity:1;fill-rule:nonzero;stroke:none"
           id="path44" /><path
           id="path46"
           style="fill:#00adef;fill-opacity:1;fill-rule:nonzero;stroke:none"
           d="m 266.944,68.719 2.608,0 0,-21.057 -2.608,0 0,21.057 z" /><path
           d="m 283.0189,47.661 0,18.711 -10.427,0 0,2.346 23.461,0 0,-2.346 -10.427,0 0,-18.711 -2.607,0 z"
           style="fill:#00adef;fill-opacity:1;fill-rule:nonzero;stroke:none"
           id="path50" /><path
           d="m 310.3601,74.135 3.504,0 -4.865,-3.853 -1.941,0 3.302,3.853 z m -11.413,-5.416 20.74,0 0,-2.347 -18.191,0 0,-6.604 17.437,0 0,-2.345 -17.437,0 0,-7.415 18.191,0 0,-2.347 -20.74,0 0,21.058 z"
           style="fill:#00adef;fill-opacity:1;fill-rule:nonzero;stroke:none"
           id="path54" /></g><g
         id="g3569"><path
           d="m 104.8726,25.0543 0,7.181 -6.128,0 0,-7.181 -3.953,0 0,17.543 3.953,0 0,-6.807 6.128,0 0,6.807 3.929,0 0,-17.543 -3.929,0 z"
           style="fill:#1f4fa2;fill-opacity:1;fill-rule:nonzero;stroke:none"
           id="path58" /><path
           d="m 122.6648,37.7781 -1.754,-6.011 4.467,0 -1.683,6.011 -0.469,1.848 -0.07,0 -0.491,-1.848 z m 3.649,-9.308 -6.362,0 -0.982,-3.416 -4.164,0 6.058,17.543 4.701,0 6.128,-17.543 -4.397,0 -0.982,3.416 z"
           style="fill:#1f4fa2;fill-opacity:1;fill-rule:nonzero;stroke:none"
           id="path62" /><path
           d="m 151.8246,31.323 c 0,-4.42 -2.386,-6.596 -7.04,-6.596 -4.631,0 -7.086,2.176 -7.086,6.596 l 0,11.274 3.929,0 0,-11.227 c 0,-2.129 0.958,-3.064 3.157,-3.064 2.198,0 3.134,0.912 3.134,3.064 l 0,11.227 3.906,0 0,-11.274 z"
           style="fill:#1f4fa2;fill-opacity:1;fill-rule:nonzero;stroke:none"
           id="path66" /><path
           d="m 166.5068,39.0417 0,-13.987 -3.976,0 0,13.987 -4.701,0 0.093,3.555 13.215,0 0.094,-3.555 -4.725,0 z"
           style="fill:#1f4fa2;fill-opacity:1;fill-rule:nonzero;stroke:none"
           id="path70" /><path
           d="m 189.2581,28.4926 -0.093,-3.438 -11.929,0 0,17.542 11.577,0 0.07,-3.485 -7.695,0 0,-3.485 6.479,0 0,-3.134 -6.479,0 0,-4 8.07,0 z"
           style="fill:#1f4fa2;fill-opacity:1;fill-rule:nonzero;stroke:none"
           id="path74" /><path
           id="path76"
           style="fill:#1f4fa2;fill-opacity:1;fill-rule:nonzero;stroke:none"
           d="m 201.952,31.744 -6.689,0 0,2.619 6.689,0 0,-2.619 z" /><path
           d="m 215.8155,37.7781 -1.754,-6.011 4.467,0 -1.683,6.011 -0.469,1.848 -0.07,0 -0.491,-1.848 z m 3.648,-9.308 -6.361,0 -0.983,-3.416 -4.163,0 6.058,17.543 4.701,0 6.127,-17.543 -4.396,0 -0.983,3.416 z"
           style="fill:#1f4fa2;fill-opacity:1;fill-rule:nonzero;stroke:none"
           id="path80" /><path
           d="m 242.0511,28.6099 -0.093,-3.555 -11.11,0 0,17.541 3.975,0 0,-13.986 7.228,0 z"
           style="fill:#1f4fa2;fill-opacity:1;fill-rule:nonzero;stroke:none"
           id="path84" /><path
           d="m 253.4826,24.7273 c -2.036,0 -3.906,0.491 -5.427,1.31 l 0.515,3.392 c 1.544,-0.819 3.134,-1.287 4.864,-1.287 1.919,0 2.761,0.701 2.761,1.918 0,2.759 -8.069,1.59 -8.069,7.461 0,2.97 1.918,5.379 6.361,5.379 1.708,0 3.555,-0.351 4.912,-0.913 l -0.492,-3.32 c -1.45,0.467 -2.9,0.748 -4.233,0.748 -2.174,0 -2.759,-0.748 -2.759,-1.684 0,-2.735 8.069,-1.473 8.069,-7.414 0,-3.462 -2.41,-5.59 -6.502,-5.59"
           style="fill:#1f4fa2;fill-opacity:1;fill-rule:nonzero;stroke:none"
           id="path88" /><path
           d="m 273.8477,37.7781 -1.754,-6.011 4.467,0 -1.683,6.011 -0.469,1.848 -0.07,0 -0.491,-1.848 z m 3.649,-9.308 -6.362,0 -0.983,-3.416 -4.163,0 6.058,17.543 4.701,0 6.127,-17.543 -4.396,0 -0.982,3.416 z"
           style="fill:#1f4fa2;fill-opacity:1;fill-rule:nonzero;stroke:none"
           id="path92" /><path
           d="m 300.6917,38.7842 c -0.912,0.35 -2.128,0.585 -3.438,0.585 -3.181,0 -4.233,-1.288 -4.233,-5.45 0,-4.397 1.098,-5.708 4.303,-5.708 1.286,0 2.432,0.259 3.415,0.68 l 0.397,-3.205 c -1.146,-0.561 -2.83,-0.959 -4.373,-0.959 -5.309,0 -7.882,2.948 -7.882,9.216 0,5.847 2.525,8.957 8.139,8.957 1.403,0 3.064,-0.328 4.07,-0.725 l -0.398,-3.391 z"
           style="fill:#1f4fa2;fill-opacity:1;fill-rule:nonzero;stroke:none"
           id="path96" /><path
           d="m 319.1626,28.4926 -0.093,-3.438 -11.929,0 0,17.542 11.578,0 0.07,-3.485 -7.696,0 0,-3.485 6.479,0 0,-3.134 -6.479,0 0,-4 8.07,0 z"
           style="fill:#1f4fa2;fill-opacity:1;fill-rule:nonzero;stroke:none"
           id="path100" /></g><g
         id="g3587"><path
           d="m 59.1073,68.8846 c -2.288,-5.057 -5.706,-10.606 -10.013,-16.047 -11.221,-14.181 -26.271,-24.836 -35.007,-24.784 -1.023,0.007 -1.936,0.168 -2.713,0.478 -1.589,0.633 -2.646,1.918 -3.142,3.82 -1.193,4.574 0.921,11.947 5.464,20.011 l -4.819,-1.753 c -3.813,-7.625 -5.395,-14.506 -4.168,-19.212 0.732,-2.807 2.459,-4.825 4.993,-5.835 1.208,-0.481 2.584,-0.731 4.091,-0.739 10.197,-0.061 25.905,10.747 38.199,26.282 5.262,6.649 9.22,13.386 11.554,19.394 l -4.439,-1.615 z"
           style="fill:#00adef;fill-opacity:1;fill-rule:nonzero;stroke:none"
           id="path104" /></g><g
         id="g3583"><path
           d="m 63.8371,35.86 -40.962,0 1.313,2.625 40.962,0 -1.313,-2.625 z"
           style="fill:#1f4fa2;fill-opacity:1;fill-rule:nonzero;stroke:none"
           id="path108" /><path
           d="m 28.868,6.4787 c 2.287,5.058 5.706,10.606 10.013,16.047 11.221,14.181 26.271,24.836 35.007,24.784 1.023,-0.007 1.936,-0.168 2.713,-0.478 1.589,-0.633 2.646,-1.918 3.142,-3.82 1.193,-4.574 -0.921,-11.947 -5.464,-20.01 l 4.819,1.752 c 3.812,7.625 5.394,14.506 4.168,19.212 -0.733,2.807 -2.459,4.825 -4.993,5.835 -1.208,0.481 -2.585,0.731 -4.092,0.739 -10.196,0.061 -25.904,-10.747 -38.198,-26.281 -5.262,-6.65 -9.221,-13.386 -11.555,-19.395 l 4.44,1.615 z"
           style="fill:#1f4fa2;fill-opacity:1;fill-rule:nonzero;stroke:none"
           id="path112" /></g></g></g></svg>