<?xml version="1.0" encoding="UTF-8" standalone="no"?>
<svg
   xmlns:dc="http://purl.org/dc/elements/1.1/"
   xmlns:cc="http://creativecommons.org/ns#"
   xmlns:rdf="http://www.w3.org/1999/02/22-rdf-syntax-ns#"
   xmlns:svg="http://www.w3.org/2000/svg"
   xmlns="http://www.w3.org/2000/svg"
   version="1.0"
   id="svg3345"
   height="114.92637"
   width="250">
  <defs
     id="defs3347" />
  <metadata
     id="metadata3350">
    <rdf:RDF>
      <cc:Work
         rdf:about="">
        <dc:format>image/svg+xml</dc:format>
        <dc:type
           rdf:resource="http://purl.org/dc/dcmitype/StillImage" />
        <dc:title></dc:title>
      </cc:Work>
    </rdf:RDF>
  </metadata>
  <g
     transform="scale(1.9154395,1.9154395)"
     id="g3350">
    <g
       id="g2536"
       transform="matrix(0.40223106,0,0,-0.40223106,62.206639,19.904404)">
      <path
         d="m 0,0 25.803,0 c 0,0 11.313,20.602 59.858,26.656 C 84.77,39.539 83.945,49.485 83.945,49.485 83.945,49.485 16.478,44.867 0,0"
         style="fill:#1b62b7;fill-opacity:1;fill-rule:nonzero;stroke:none"
         id="path2538" />
    </g>
    <g
       id="g2540"
       transform="matrix(0.40223106,0,0,-0.40223106,59.459807,35.774025)">
      <path
         d="m 0,0 23.433,0 c 0,0 -3.005,-50.431 -86.883,-60.229 -1.023,13.015 -1.752,22.803 -1.752,22.803 0,0 56.176,5.226 65.202,37.426"
         style="fill:#1b62b7;fill-opacity:1;fill-rule:nonzero;stroke:none"
         id="path2542" />
    </g>
    <g
       style="fill:#000000"
       id="g2544"
       transform="matrix(0.40223106,0,0,-0.40223106,4.3153904e-7,25.462436)">
      <path
         d="m 0,0 c 0.778,-0.077 0.892,-0.134 0.892,-0.969 l 0,-6.911 c 0,-2.944 1.709,-4.311 4.614,-4.311 2.924,0 4.633,1.367 4.633,4.311 l 0,6.911 c 0,0.835 0.114,0.892 0.893,0.969 l 0,0.265 c -0.589,0 -1.178,-0.113 -1.69,-0.113 -0.969,0 -1.576,0.113 -2.165,0.113 L 7.177,0 c 0.418,-0.02 1.102,-0.134 1.102,-0.817 l 0,-7.424 c 0,-2.013 -1.215,-3 -2.773,-3 -1.537,0 -2.753,0.987 -2.753,3 l 0,7.424 c 0,0.683 0.684,0.797 1.102,0.817 l 0,0.265 C 3.266,0.265 2.658,0.152 1.69,0.152 1.177,0.152 0.589,0.265 0,0.265 L 0,0 Z m 16.5,-10.937 c 0,-0.532 -0.228,-0.684 -0.968,-0.798 l 0,-0.266 c 0.626,0 1.253,0.114 1.88,0.114 0.531,0 1.063,-0.114 1.594,-0.114 l 0,0.266 c -1.025,0.171 -1.329,0.456 -1.329,1.728 l 0,8.184 0.038,0 7.387,-10.178 1.12,0 0,11.203 c 0,0.532 0.227,0.683 0.968,0.798 l 0,0.265 c -0.627,0 -1.253,-0.113 -1.88,-0.113 -0.532,0 -1.063,0.113 -1.595,0.113 l 0,-0.265 c 1.026,-0.172 1.329,-0.456 1.329,-1.728 l 0,-6.874 -0.037,0 -6.457,8.867 c -0.474,0 -0.892,-0.113 -1.404,-0.113 -0.532,0 -1.083,0.113 -1.614,0.113 l 0,-0.265 c 0.74,-0.115 0.968,-0.266 0.968,-0.798 l 0,-10.139 z m 15.114,-1.064 c 0.399,0 1.177,0.114 1.898,0.114 0.722,0 1.5,-0.114 1.899,-0.114 l 0,0.266 c -0.74,0.114 -0.968,0.266 -0.968,0.798 l 0,10.139 c 0,0.532 0.228,0.683 0.968,0.798 l 0,0.265 c -0.399,0 -1.177,-0.113 -1.899,-0.113 -0.721,0 -1.499,0.113 -1.898,0.113 l 0,-0.265 c 0.74,-0.115 0.968,-0.266 0.968,-0.798 l 0,-10.139 c 0,-0.532 -0.228,-0.684 -0.968,-0.798 l 0,-0.266 z M 38.867,0 c 0.855,-0.077 1.006,-0.437 1.177,-0.855 l 4.177,-11.146 1.272,0 3.722,10.975 c 0.19,0.57 0.532,0.949 1.139,1.026 l 0,0.265 c -0.475,0 -0.949,-0.113 -1.424,-0.113 -0.57,0 -1.158,0.113 -1.727,0.113 l 0,-0.265 c 0.379,-0.077 0.892,-0.19 0.892,-0.57 0,-0.228 -0.095,-0.589 -0.247,-1.063 l -2.715,-8.165 -0.038,0 -3.038,8.43 c -0.076,0.209 -0.209,0.608 -0.209,0.817 0,0.361 0.247,0.531 0.968,0.551 l 0,0.265 c -0.569,0 -1.101,-0.113 -1.652,-0.113 -0.759,0 -1.538,0.113 -2.297,0.113 l 0,-0.265 z m 16.196,-10.824 c 0,-0.531 -0.228,-0.683 -0.968,-0.797 l 0,-0.266 9.645,0 c 0.02,1.045 0.095,2.07 0.19,3.114 l -0.361,0 c -0.342,-1.727 -1.025,-2.051 -2.62,-2.051 l -4.025,0 0,4.785 2.696,0 c 0.684,0 1.063,-0.057 1.196,-1.101 l 0.38,0 c -0.057,0.551 -0.114,1.063 -0.114,1.652 0,0.551 0.057,1.063 0.114,1.614 l -0.38,0 C 60.683,-4.919 60.304,-4.975 59.62,-4.975 l -2.696,0 0,4.063 4.348,0 c 0.835,0 1.481,-0.228 1.709,-1.747 l 0.38,0 c -0.077,0.931 -0.114,1.88 -0.114,2.811 l -9.152,0 0,-0.267 c 0.74,-0.114 0.968,-0.266 0.968,-0.797 l 0,-9.912 z m 14.26,-0.113 c 0,-0.532 -0.228,-0.684 -0.969,-0.798 l 0,-0.266 c 0.399,0 1.177,0.114 1.899,0.114 0.721,0 1.5,-0.114 1.899,-0.114 l 0,0.266 c -0.741,0.114 -0.969,0.266 -0.969,0.798 l 0,10.025 1.026,0 c 1.595,0 3.209,-0.266 3.209,-2.07 0,-1.671 -1.387,-2.487 -3.361,-2.487 -0.152,0 -0.361,-0.076 -0.361,-0.19 0,-0.076 0.152,-0.247 0.38,-0.55 l 2.449,-3.285 c 1.538,-2.146 1.728,-2.45 1.937,-2.507 0.474,0 0.968,0.114 1.462,0.114 0.322,0 0.645,-0.114 0.987,-0.114 l 0,0.266 c -0.551,0.057 -1.025,0.532 -1.595,1.253 l -3.494,4.52 c 1.823,0.152 3.456,1.29 3.456,3.227 0,1.576 -0.892,2.887 -3.418,2.887 l -5.506,0 0,-0.267 c 0.741,-0.114 0.969,-0.266 0.969,-0.797 l 0,-10.025 z m 13.291,2.582 c 0.075,-0.988 0.113,-1.956 0.113,-2.943 1.083,-0.665 2.279,-0.893 3.456,-0.893 3.532,0 5.127,1.785 5.127,3.893 0,2.525 -1.804,3 -4.177,3.475 -2.336,0.474 -3.077,0.683 -3.077,2.05 0,1.197 1.045,2.165 3.096,2.165 1.329,0 2.886,-0.551 3.152,-2.203 l 0.379,0 c -0.057,0.874 -0.095,1.766 -0.075,2.639 -0.685,0.418 -2.355,0.627 -3.153,0.627 -3.057,0 -5.031,-1.633 -5.031,-3.512 0,-2.317 1.766,-2.905 5.031,-3.551 1.311,-0.266 2.222,-0.57 2.222,-2.089 0,-1.69 -1.576,-2.43 -2.962,-2.43 -1.861,0 -3.266,0.949 -3.722,2.772 l -0.379,0 z m 12.93,-3.646 c 0.399,0 1.177,0.114 1.899,0.114 0.721,0 1.499,-0.114 1.898,-0.114 l 0,0.266 c -0.74,0.114 -0.968,0.266 -0.968,0.798 l 0,10.139 c 0,0.532 0.228,0.683 0.968,0.798 l 0,0.265 c -0.399,0 -1.177,-0.113 -1.898,-0.113 -0.722,0 -1.5,0.113 -1.899,0.113 l 0,-0.265 c 0.74,-0.115 0.969,-0.266 0.969,-0.798 l 0,-10.139 c 0,-0.532 -0.229,-0.684 -0.969,-0.798 l 0,-0.266 z m 11.544,1.367 c 0,-0.645 -0.227,-0.987 -1.196,-1.101 l 0,-0.266 c 0.74,0 1.557,0.114 2.127,0.114 0.57,0 1.386,-0.114 2.126,-0.114 l 0,0.266 c -0.968,0.114 -1.196,0.456 -1.196,1.101 l 0,9.722 1.747,0 c 1.063,0 1.595,-0.342 1.937,-2.051 l 0.379,0 c -0.132,1.045 -0.246,2.07 -0.303,3.115 l -9.38,0 c -0.057,-1.045 -0.171,-2.07 -0.304,-3.115 l 0.38,0 c 0.342,1.709 0.873,2.051 1.937,2.051 l 1.746,0 0,-9.722 z m 13.216,12.095 0.873,0 2.696,1.69 c 0.38,0.228 0.779,0.57 0.779,0.912 0,0.266 -0.285,0.74 -0.779,0.74 -0.228,0 -0.455,-0.113 -1.12,-0.797 l -2.449,-2.545 z m -2.355,-12.285 c 0,-0.531 -0.228,-0.683 -0.968,-0.797 l 0,-0.266 9.646,0 c 0.018,1.045 0.094,2.07 0.189,3.114 l -0.361,0 c -0.341,-1.727 -1.025,-2.051 -2.62,-2.051 l -4.025,0 0,4.785 2.696,0 c 0.684,0 1.064,-0.057 1.196,-1.101 l 0.38,0 c -0.057,0.551 -0.114,1.063 -0.114,1.652 0,0.551 0.057,1.063 0.114,1.614 l -0.38,0 c -0.132,-1.045 -0.512,-1.101 -1.196,-1.101 l -2.696,0 0,4.063 4.348,0 c 0.836,0 1.481,-0.228 1.709,-1.747 l 0.38,0 c -0.076,0.931 -0.114,1.88 -0.114,2.811 l -9.152,0 0,-0.267 c 0.74,-0.114 0.968,-0.266 0.968,-0.797 l 0,-9.912 z m 20.459,10.976 0,-0.267 c 0.741,-0.114 0.968,-0.266 0.968,-0.797 l 0,-9.912 c 0,-0.531 -0.227,-0.683 -0.968,-0.797 l 0,-0.266 5.031,0 c 3.76,0 6.855,2.469 6.855,6.095 0,3.589 -2.563,5.944 -7.386,5.944 l -4.5,0 z m 2.829,-1.064 0.95,0 c 5.202,0 6.246,-3.076 6.246,-5.241 0,-2.923 -2.601,-4.671 -4.538,-4.671 l -2.658,0 0,9.912 z m 14.506,-9.912 c 0,-0.531 -0.228,-0.683 -0.968,-0.797 l 0,-0.266 9.645,0 c 0.019,1.045 0.095,2.07 0.191,3.114 l -0.361,0 c -0.342,-1.727 -1.026,-2.051 -2.621,-2.051 l -4.025,0 0,4.785 2.696,0 c 0.684,0 1.063,-0.057 1.197,-1.101 l 0.379,0 c -0.057,0.551 -0.114,1.063 -0.114,1.652 0,0.551 0.057,1.063 0.114,1.614 l -0.379,0 c -0.134,-1.045 -0.513,-1.101 -1.197,-1.101 l -2.696,0 0,4.063 4.348,0 c 0.835,0 1.481,-0.228 1.709,-1.747 l 0.38,0 c -0.076,0.931 -0.115,1.88 -0.115,2.811 l -9.151,0 0,-0.267 c 0.74,-0.114 0.968,-0.266 0.968,-0.797"
         style="fill:#000000;fill-opacity:1;fill-rule:nonzero;stroke:none"
         id="path2546" />
    </g>
    <g
       id="g2548"
       transform="matrix(0.40223106,0,0,-0.40223106,71.069804,28.563235)">
      <path
         d="m 0,0 c 0.095,-1.101 0.152,-2.411 0.152,-3.911 1.272,-0.455 2.734,-0.684 4.12,-0.684 3.095,0 5.621,1.329 5.621,3.836 0,2.468 -1.785,3.171 -3.703,3.722 L 4.196,3.532 C 3.418,3.76 2.507,4.064 2.507,5.108 c 0,1.31 1.594,1.614 2.544,1.614 1.708,0 3.247,-0.817 3.645,-2.563 l 0.361,0 C 8.981,5.146 8.905,6.304 8.905,7.671 7.804,8.07 6.57,8.279 5.373,8.279 2.545,8.279 -0.303,7.386 -0.303,4.444 -0.303,2.203 1.633,1.387 3.57,0.817 L 4.918,0.418 c 0.873,-0.266 2.05,-0.569 2.05,-1.709 0,-1.424 -1.613,-1.746 -2.733,-1.746 C 2.203,-3.037 0.74,-2.069 0.361,0 L 0,0 Z m 20.468,6.19 1.9,0 c 0.986,0 1.404,-0.683 1.594,-2.05 l 0.361,0 c -0.038,0.797 -0.114,1.595 -0.114,2.392 l 0,1.33 -10.291,0 0,-1.33 c 0,-0.797 -0.076,-1.595 -0.114,-2.392 l 0.361,0 c 0.189,1.367 0.607,2.05 1.594,2.05 l 1.899,0 0,-8.962 c 0,-0.911 -0.665,-1.158 -1.253,-1.158 l 0,-0.361 c 0.912,0.057 1.823,0.114 2.658,0.114 0.836,0 1.747,-0.057 2.659,-0.114 l 0,0.361 c -0.589,0 -1.254,0.247 -1.254,1.158 l 0,8.962 z m 11.621,0 1.253,0 c 1.709,0 2.848,-0.607 2.848,-2.126 0,-1.709 -1.082,-2.089 -3.855,-2.45 l 0,-0.038 c 1.254,-1.727 2.716,-3.778 3.836,-5.867 0.665,0.057 1.31,0.114 1.956,0.114 0.646,0 1.31,-0.057 1.955,-0.114 l 0,0.418 c -0.493,-0.038 -0.835,0.209 -1.215,0.741 L 35.773,1.14 C 38.374,1.823 39,3.152 39,4.633 39,6.836 37.329,7.862 35.146,7.862 l -6.741,0 0,-0.361 c 0.646,-0.02 0.873,-0.266 0.873,-0.798 l 0,-9.285 c 0,-0.892 -0.132,-1.215 -0.873,-1.348 l 0,-0.361 c 0.836,0.057 1.576,0.114 2.279,0.114 0.703,0 1.443,-0.057 2.639,-0.114 l 0,0.361 c -1.101,0.209 -1.234,0.456 -1.234,1.14 l 0,8.98 z M 42.437,-4.291 c 0.665,0.057 1.31,0.114 1.974,0.114 0.646,0 1.31,-0.057 1.956,-0.114 l 0,0.361 c -0.626,0.038 -0.892,0.266 -0.892,0.607 0,0.191 0.057,0.399 0.151,0.665 l 0.836,2.241 3.702,0 0.608,-1.842 c 0.095,-0.247 0.19,-0.683 0.19,-0.949 0,-0.437 -0.247,-0.589 -0.949,-0.722 l 0,-0.361 c 0.816,0.057 1.633,0.114 2.449,0.114 0.797,0 1.614,-0.057 2.412,-0.114 l 0,0.361 c -0.57,0.152 -0.855,0.399 -1.14,1.234 L 50.241,7.975 C 49.652,7.918 49.044,7.862 48.456,7.862 c -0.589,0 -1.177,0.056 -1.785,0.113 l 0,-0.36 c 0.513,0 0.722,-0.304 0.722,-0.494 0,-0.19 -0.134,-0.456 -0.247,-0.741 L 43.424,-3.057 C 43.234,-3.55 42.987,-3.854 42.437,-3.93 l 0,-0.361 z m 4.595,5.317 c 0.493,1.348 1.101,2.848 1.538,4.367 l 0.038,0 C 48.987,3.475 49.31,2.26 49.709,1.026 l -2.677,0 z M 58.12,0 c 0.095,-1.101 0.152,-2.411 0.152,-3.911 1.272,-0.455 2.734,-0.684 4.12,-0.684 3.095,0 5.621,1.329 5.621,3.836 0,2.468 -1.785,3.171 -3.703,3.722 l -1.993,0.569 c -0.779,0.228 -1.69,0.532 -1.69,1.576 0,1.31 1.594,1.614 2.544,1.614 1.709,0 3.247,-0.817 3.645,-2.563 l 0.361,0 c -0.076,0.987 -0.152,2.145 -0.152,3.512 -1.101,0.399 -2.335,0.608 -3.531,0.608 -2.829,0 -5.677,-0.893 -5.677,-3.835 0,-2.241 1.936,-3.057 3.873,-3.627 l 1.348,-0.399 c 0.873,-0.266 2.05,-0.569 2.05,-1.709 0,-1.424 -1.613,-1.746 -2.733,-1.746 -2.032,0 -3.494,0.968 -3.874,3.037 L 58.12,0 Z m 17.81,1.235 1.785,0 c 2.165,0 2.848,-0.968 2.848,-1.861 0,-0.969 -0.474,-1.994 -2.981,-1.994 l -1.652,0 0,3.855 z m 0,5.069 1.558,0 c 1.518,0 2.316,-0.588 2.316,-1.576 0,-0.892 -0.532,-1.937 -2.545,-1.937 l -1.329,0 0,3.513 z m -2.81,-9.323 c 0,-0.531 -0.228,-0.778 -0.873,-0.797 l 0,-0.361 6.873,0 c 1.178,0 4.253,0.684 4.253,3.475 0,1.956 -1.651,2.791 -3.418,2.848 l 0,0.038 c 1.387,0.342 2.545,1.31 2.545,2.772 0,2.26 -2.164,2.906 -3.38,2.906 l -6.873,0 0,-0.361 C 72.892,7.481 73.12,7.235 73.12,6.703 l 0,-9.722 z m 23.81,4.045 c 0,-2.07 -1.12,-3.798 -3.057,-3.798 -2.715,0 -3.702,3.247 -3.702,5.468 0,1.52 0.702,3.76 3.057,3.76 2.848,0 3.702,-3.227 3.702,-5.43 m 2.811,0.797 c 0,3.38 -2.336,6.456 -6.209,6.456 -3.494,0 -6.171,-2.62 -6.171,-6.228 0,-3.475 2.297,-6.646 6.076,-6.646 3.398,0 6.304,2.412 6.304,6.418 m 4.936,-2.05 c 0,-3.247 1.823,-4.368 5.24,-4.368 3.418,0 5.241,1.121 5.241,4.633 l 0,6.779 c 0,0.532 0.228,0.778 0.873,0.798 l 0,0.36 c -0.607,-0.057 -1.386,-0.113 -2.183,-0.113 -0.988,0 -1.766,0.056 -2.526,0.113 l 0,-0.36 c 0.817,-0.039 1.026,-0.191 1.026,-0.931 l 0,-7.044 c 0,-2.108 -0.892,-2.564 -2.431,-2.564 -1.538,0 -2.43,0.418 -2.43,2.564 l 0,7.044 c 0,0.74 0.209,0.892 1.025,0.931 l 0,0.36 c -0.759,-0.057 -1.537,-0.113 -2.525,-0.113 -0.797,0 -1.576,0.056 -2.183,0.113 l 0,-0.36 c 0.645,-0.02 0.873,-0.266 0.873,-0.798 l 0,-7.044 z m 19.31,6.417 1.253,0 c 1.709,0 2.848,-0.607 2.848,-2.126 0,-1.709 -1.082,-2.089 -3.854,-2.45 l 0,-0.038 c 1.253,-1.727 2.715,-3.778 3.835,-5.867 0.665,0.057 1.31,0.114 1.956,0.114 0.645,0 1.31,-0.057 1.956,-0.114 l 0,0.418 c -0.494,-0.038 -0.836,0.209 -1.215,0.741 L 127.67,1.14 c 2.602,0.683 3.228,2.012 3.228,3.493 0,2.203 -1.67,3.229 -3.854,3.229 l -6.741,0 0,-0.361 c 0.646,-0.02 0.874,-0.266 0.874,-0.798 l 0,-9.285 c 0,-0.892 -0.133,-1.215 -0.874,-1.348 l 0,-0.361 c 0.836,0.057 1.576,0.114 2.279,0.114 0.702,0 1.443,-0.057 2.639,-0.114 l 0,0.361 c -1.101,0.209 -1.234,0.456 -1.234,1.14 l 0,8.98 z m 20.107,-7.462 c 0,-0.873 -0.74,-1.5 -2.088,-1.5 -2.203,0 -3.532,2.506 -3.532,4.861 0,2.449 1.291,4.519 3.93,4.519 1.576,0 3.171,-0.835 3.418,-2.525 l 0.475,0 c -0.076,1.31 -0.114,2.449 -0.114,3.38 -1.044,0.588 -2.355,0.816 -3.664,0.816 -4.102,0 -6.855,-2.544 -6.855,-6.665 0,-3.417 2.279,-6.209 5.848,-6.209 1.291,0 2.545,0.399 3.74,1.519 l 0.438,-1.215 1.1,0 0,4.272 c 0,0.855 0.342,1.026 1.007,1.045 l 0,0.436 c -0.855,-0.056 -1.69,-0.113 -2.545,-0.113 -0.797,0 -1.576,0.057 -2.354,0.113 l 0,-0.474 c 0.855,-0.019 1.196,-0.057 1.196,-0.816"
         style="fill:#1b62b7;fill-opacity:1;fill-rule:nonzero;stroke:none"
         id="path2550" />
    </g>
  </g>
</svg>
